<svg width="60" height="60" viewBox="0 0 60 60" fill="none" xmlns="http://www.w3.org/2000/svg">
<path d="M30 0C13.44 0 0 13.44 0 30C0 46.56 13.44 60 30 60C46.56 60 60 46.56 60 30C60 13.44 46.56 0 30 0ZM30 9C34.98 9 39 13.02 39 18C39 22.98 34.98 27 30 27C25.02 27 21 22.98 21 18C21 13.02 25.02 9 30 9ZM30 51.6C26.4356 51.6 22.9266 50.7179 19.7858 49.0324C16.6451 47.3469 13.9703 44.9103 12 41.94C12.09 35.97 24 32.7 30 32.7C35.97 32.7 47.91 35.97 48 41.94C46.0297 44.9103 43.3549 47.3469 40.2142 49.0324C37.0734 50.7179 33.5644 51.6 30 51.6Z" fill="#113300"/>
</svg>
