<svg width="12" height="14" viewBox="0 0 12 14" fill="none" xmlns="http://www.w3.org/2000/svg">
<g clip-path="url(#clip0)">
<path d="M10.5661 0H1.40204C0.629213 0 0 0.643044 0 1.4399V10.89C0 11.6869 0.629166 12.3299 1.402 12.3299H9.15731L8.79481 11.0368L9.67021 11.8686L10.4977 12.6515L11.9681 13.9795V1.4399C11.9681 0.643044 11.3389 0 10.5661 0ZM7.92629 9.12867C7.92629 9.12867 7.6801 8.82807 7.47491 8.56246C8.37083 8.30382 8.71277 7.73068 8.71277 7.73068C8.43236 7.91941 8.16565 8.05225 7.92629 8.14303C7.58435 8.28986 7.25607 8.38767 6.93466 8.44362C6.2781 8.56943 5.67629 8.5345 5.16339 8.43665C4.77354 8.35972 4.43843 8.24791 4.15807 8.1361C4.00075 8.07317 3.82979 7.99629 3.65877 7.89844C3.6383 7.88444 3.61777 7.87746 3.59725 7.86346C3.5836 7.85648 3.57673 7.84951 3.5699 7.84253C3.44681 7.77263 3.37841 7.7237 3.37841 7.7237C3.37841 7.7237 3.70669 8.28289 4.57522 8.54846C4.37008 8.81412 4.11702 9.12862 4.11702 9.12862C2.60558 9.07969 2.03116 8.0662 2.03116 8.0662C2.03116 5.81549 3.01596 3.99115 3.01596 3.99115C4.00075 3.23625 4.93768 3.25722 4.93768 3.25722L5.00607 3.34113C3.77509 3.70451 3.20745 4.25676 3.20745 4.25676C3.20745 4.25676 3.35789 4.17291 3.6109 4.05407C4.34269 3.72553 4.92403 3.6347 5.16339 3.61372C5.20439 3.6067 5.23861 3.59972 5.27966 3.59972C5.73795 3.5387 6.20174 3.53402 6.66113 3.58577C7.31077 3.66265 8.00838 3.85836 8.71959 4.25676C8.71959 4.25676 8.17934 3.73255 7.01671 3.36908L7.11246 3.25727C7.11246 3.25727 8.04938 3.23625 9.03417 3.99119C9.03417 3.99119 10.019 5.81549 10.019 8.0662C10.019 8.0662 9.43768 9.07969 7.92629 9.12862V9.12867ZM4.74619 5.86442C4.35638 5.86442 4.04867 6.2139 4.04867 6.64025C4.04867 7.06665 4.36321 7.41613 4.74619 7.41613C5.13604 7.41613 5.44375 7.06665 5.44375 6.64025C5.45062 6.2139 5.13604 5.86442 4.74623 5.86442H4.74619ZM7.24242 5.86442C6.85257 5.86442 6.54481 6.2139 6.54481 6.64025C6.54481 7.06665 6.85944 7.41613 7.24242 7.41613C7.63223 7.41613 7.93994 7.06665 7.93994 6.64025C7.93994 6.2139 7.63223 5.86442 7.24242 5.86442Z" fill="#7289DA"/>
</g>
<defs>
<clipPath id="clip0">
<rect width="11.9681" height="14" fill="white"/>
</clipPath>
</defs>
</svg>
