<svg width="25" height="25" viewBox="0 0 25 25" fill="none" xmlns="http://www.w3.org/2000/svg">
<path d="M4.16659 21.875H14.1874C14.7885 21.8753 15.3826 21.7454 15.9287 21.4942C16.4748 21.243 16.96 20.8764 17.351 20.4198L22.6655 14.2198C22.7768 14.0902 22.8545 13.9352 22.8918 13.7685C22.9291 13.6018 22.9248 13.4285 22.8793 13.2638C22.8338 13.0991 22.7485 12.9482 22.631 12.8243C22.5134 12.7003 22.3672 12.6072 22.2051 12.5531L20.1551 11.8698C19.6597 11.7087 19.1321 11.6723 18.6192 11.7637C18.1063 11.8551 17.6239 12.0715 17.2145 12.3937L13.8968 15.0469L13.2541 13.7604C12.9098 13.0669 12.3781 12.4838 11.7194 12.0769C11.0607 11.67 10.3012 11.4557 9.527 11.4583H4.16659C3.01763 11.4583 2.08325 12.3927 2.08325 13.5417V19.7917C2.08325 20.9406 3.01763 21.875 4.16659 21.875ZM4.16659 13.5417H9.527C10.3218 13.5417 11.0353 13.9823 11.3905 14.6927L11.8562 15.625H7.29159V17.7083H13.5562C13.7164 17.7062 13.874 17.667 14.0166 17.5937L14.0197 17.5927L14.0239 17.5906H14.027L14.0291 17.5896H14.0333L14.0343 17.5885C14.0437 17.5917 14.0374 17.5875 14.0374 17.5875C14.0478 17.5875 14.0395 17.5864 14.0395 17.5864H14.0405L14.0426 17.5854L14.0458 17.5844L14.0478 17.5833L14.0499 17.5823L14.053 17.5812L14.0551 17.5802C14.0583 17.5802 14.0562 17.5792 14.0572 17.5792L14.0603 17.5771L14.0624 17.576L14.0645 17.575L14.0676 17.5739L14.0697 17.5729H14.0708L14.0728 17.5719H14.0739L14.076 17.5708L14.078 17.5698C14.0874 17.5687 14.0812 17.5687 14.0812 17.5687L14.0833 17.5677C14.1234 17.5435 14.1617 17.5163 14.1978 17.4864L18.5166 14.0312C18.7895 13.8146 19.1655 13.7469 19.4958 13.8573L20.076 14.051L15.7708 19.075C15.5727 19.2999 15.3291 19.48 15.0562 19.6036C14.7832 19.7272 14.4871 19.7913 14.1874 19.7917H4.16659V13.5417ZM16.6666 2.08332H16.6489C16.4791 2.08541 15.601 2.12395 14.5833 2.8177C13.5926 2.1427 12.7353 2.08853 12.5333 2.08436L12.502 2.08332H12.4978C11.6635 2.08332 10.878 2.40936 10.2905 2.99791C9.70096 3.58853 9.37492 4.37291 9.37492 5.20832C9.37492 6.04374 9.70096 6.82811 10.2718 7.39999L13.828 11.1354C13.9259 11.237 14.0432 11.3178 14.173 11.3729C14.3028 11.428 14.4424 11.4564 14.5835 11.4563C14.7245 11.4562 14.8641 11.4276 14.9938 11.3723C15.1235 11.317 15.2408 11.2361 15.3385 11.1344L18.876 7.4177C19.4666 6.82811 19.7916 6.04374 19.7916 5.20832C19.7916 4.37291 19.4655 3.58853 18.877 2.99895C18.5878 2.70785 18.2437 2.47703 17.8646 2.31986C17.4855 2.16269 17.079 2.08229 16.6687 2.08332H16.6666ZM17.7083 5.20832C17.7083 5.48645 17.5999 5.74791 17.3843 5.96353L14.5833 8.90624L11.7635 5.94478C11.5666 5.74791 11.4583 5.48645 11.4583 5.20832C11.4583 4.9302 11.5666 4.66874 11.7645 4.47082C11.9529 4.27921 12.2094 4.16988 12.478 4.16666C12.5041 4.1677 13.001 4.19999 13.5895 4.67186C13.6739 4.73957 13.7593 4.81666 13.8468 4.90311L14.5833 5.63957L15.3197 4.90311C15.4072 4.81666 15.4926 4.73957 15.577 4.67186C16.128 4.22916 16.5937 4.17395 16.6728 4.1677C16.8086 4.16767 16.943 4.19454 17.0684 4.24674C17.1937 4.29895 17.3074 4.37546 17.403 4.47186C17.5999 4.66874 17.7083 4.9302 17.7083 5.20832Z" fill="#69000F"/>
</svg>
