<svg width="21" height="20" viewBox="0 0 21 20" fill="none" xmlns="http://www.w3.org/2000/svg">
<path d="M2.16659 19.875H12.1874C12.7885 19.8753 13.3826 19.7454 13.9287 19.4942C14.4748 19.243 14.96 18.8764 15.351 18.4198L20.6655 12.2198C20.7768 12.0902 20.8545 11.9352 20.8918 11.7685C20.9291 11.6018 20.9248 11.4285 20.8793 11.2638C20.8338 11.0991 20.7485 10.9482 20.631 10.8243C20.5134 10.7003 20.3672 10.6072 20.2051 10.5531L18.1551 9.86978C17.6597 9.70873 17.1321 9.67229 16.6192 9.76368C16.1063 9.85507 15.6239 10.0715 15.2145 10.3937L11.8968 13.0469L11.2541 11.7604C10.9098 11.0669 10.3781 10.4838 9.71943 10.0769C9.06072 9.67003 8.30123 9.45575 7.527 9.45832H2.16659C1.01763 9.45832 0.083252 10.3927 0.083252 11.5417V17.7917C0.083252 18.9406 1.01763 19.875 2.16659 19.875ZM2.16659 11.5417H7.527C8.32179 11.5417 9.03534 11.9823 9.39054 12.6927L9.85617 13.625H5.29159V15.7083H11.5562C11.7164 15.7062 11.874 15.667 12.0166 15.5937L12.0197 15.5927L12.0239 15.5906H12.027L12.0291 15.5896H12.0333L12.0343 15.5885C12.0437 15.5917 12.0374 15.5875 12.0374 15.5875C12.0478 15.5875 12.0395 15.5864 12.0395 15.5864H12.0405L12.0426 15.5854L12.0458 15.5844L12.0478 15.5833L12.0499 15.5823L12.053 15.5812L12.0551 15.5802C12.0583 15.5802 12.0562 15.5792 12.0572 15.5792L12.0603 15.5771L12.0624 15.576L12.0645 15.575L12.0676 15.5739L12.0697 15.5729H12.0708L12.0728 15.5719H12.0739L12.076 15.5708L12.078 15.5698C12.0874 15.5687 12.0812 15.5687 12.0812 15.5687L12.0833 15.5677C12.1234 15.5435 12.1617 15.5163 12.1978 15.4864L16.5166 12.0312C16.7895 11.8146 17.1655 11.7469 17.4958 11.8573L18.076 12.051L13.7708 17.075C13.5727 17.2999 13.3291 17.48 13.0562 17.6036C12.7832 17.7272 12.4871 17.7913 12.1874 17.7917H2.16659V11.5417V11.5417ZM14.6666 0.0833228H14.6489C14.4791 0.0854061 13.601 0.123948 12.5833 0.817698C11.5926 0.142698 10.7353 0.088531 10.5333 0.0843644L10.502 0.0833228H10.4978C9.66346 0.0833228 8.87804 0.409364 8.29054 0.997906C7.70096 1.58853 7.37492 2.37291 7.37492 3.20832C7.37492 4.04374 7.70096 4.82811 8.27179 5.39999L11.828 9.13541C11.9259 9.23698 12.0432 9.31775 12.173 9.37289C12.3028 9.42804 12.4424 9.45641 12.5835 9.45631C12.7245 9.45621 12.8641 9.42765 12.9938 9.37233C13.1235 9.31701 13.2408 9.23607 13.3385 9.13436L16.876 5.4177C17.4666 4.82811 17.7916 4.04374 17.7916 3.20832C17.7916 2.37291 17.4655 1.58853 16.877 0.998948C16.5878 0.707849 16.2437 0.47703 15.8646 0.31986C15.4855 0.162689 15.079 0.0822915 14.6687 0.0833228H14.6666ZM15.7083 3.20832C15.7083 3.48645 15.5999 3.74791 15.3843 3.96353L12.5833 6.90624L9.76346 3.94478C9.56659 3.74791 9.45825 3.48645 9.45825 3.20832C9.45825 2.9302 9.56659 2.66874 9.7645 2.47082C9.95287 2.27921 10.2094 2.16988 10.478 2.16666C10.5041 2.1677 11.001 2.19999 11.5895 2.67186C11.6739 2.73957 11.7593 2.81666 11.8468 2.90311L12.5833 3.63957L13.3197 2.90311C13.4072 2.81666 13.4926 2.73957 13.577 2.67186C14.128 2.22916 14.5937 2.17395 14.6728 2.1677C14.8086 2.16767 14.943 2.19454 15.0684 2.24674C15.1937 2.29895 15.3074 2.37546 15.403 2.47186C15.5999 2.66874 15.7083 2.9302 15.7083 3.20832Z" fill="#F1E3D2"/>
</svg>
