<svg width="12" height="13" viewBox="0 0 12 13" fill="none" xmlns="http://www.w3.org/2000/svg">
<g clip-path="url(#clip0)">
<path d="M11.3394 12.2321C11.7042 12.2321 11.9999 11.9299 11.9999 11.557V0.675106C11.9999 0.302218 11.7042 0 11.3394 0H0.692396C0.327509 0 0.0318604 0.302218 0.0318604 0.675106V11.557C0.0318604 11.9299 0.327509 12.2321 0.692396 12.2321H11.3394" fill="#395185"/>
<path d="M8.28963 12.2321V7.49514H9.84534L10.0782 5.6491H8.28963V4.47043C8.28963 3.93594 8.43488 3.57171 9.1848 3.57171L10.1413 3.57127V1.92018C9.97577 1.89768 9.40804 1.84741 8.74755 1.84741C7.36851 1.84741 6.42443 2.70772 6.42443 4.28766V5.6491H4.86475V7.49514H6.42443V12.2321H8.28963" fill="white"/>
</g>
<defs>
<clipPath id="clip0">
<rect width="11.9681" height="12.2321" fill="white" transform="translate(0.0318604)"/>
</clipPath>
</defs>
</svg>
